<svg width="258" height="72" viewBox="0 0 258 72" fill="none" xmlns="http://www.w3.org/2000/svg">
<path d="M0.471507 26.6373V0.523336H7.85804V20.7803H20.3181V26.6373H0.471507ZM30.0307 10.6332H42.1551V16.1544H30.0307V10.6332ZM30.553 20.9296H44.2069V26.6373H23.2411V0.523336H43.7219V6.23111H30.553V20.9296ZM45.1722 26.6373L56.6997 0.523336H63.9743L75.539 26.6373H67.8541L58.8261 4.14199H61.7359L52.7079 26.6373H45.1722ZM51.4769 21.5638L53.3794 16.1171H66.138L68.0406 21.5638H51.4769ZM77.6331 26.6373V0.523336H89.5709C91.9585 0.523336 94.0103 0.908828 95.7264 1.67981C97.4673 2.4508 98.8103 3.56997 99.7554 5.03733C100.7 6.47981 101.173 8.19588 101.173 10.1855C101.173 12.1503 100.7 13.8539 99.7554 15.2964C98.8103 16.714 97.4673 17.8083 95.7264 18.5793C94.0103 19.3254 91.9585 19.6985 89.5709 19.6985H81.7367L85.0196 16.6021V26.6373H77.6331ZM93.7865 26.6373L87.2953 17.1244H95.1668L101.695 26.6373H93.7865ZM85.0196 17.3855L81.7367 13.9907H89.1233C90.6652 13.9907 91.8093 13.6549 92.5554 12.9834C93.3264 12.3119 93.7119 11.3793 93.7119 10.1855C93.7119 8.96686 93.3264 8.02178 92.5554 7.35028C91.8093 6.67878 90.6652 6.34303 89.1233 6.34303H81.7367L85.0196 2.94821V17.3855ZM105.248 26.6373V0.523336H111.329L125.729 17.9078H122.856V0.523336H130.094V26.6373H124.013L109.613 9.25287H112.485V26.6373H105.248Z" fill="#F5F5F5"/>
<path d="M152.614 26.6373L144.146 0.523336H151.756L158.882 23.1306H155.039L162.538 0.523336H169.327L176.415 23.1306H172.722L180.071 0.523336H187.122L178.654 26.6373H170.745L164.701 7.42489H166.828L160.523 26.6373H152.614ZM196.558 10.6332H208.683V16.1544H196.558V10.6332ZM197.081 20.9296H210.735V26.6373H189.769V0.523336H210.25V6.23111H197.081V20.9296ZM214.834 26.6373V0.523336H222.22V20.7803H234.68V26.6373H214.834ZM237.603 26.6373V0.523336H244.99V20.7803H257.45V26.6373H237.603Z" fill="#F9CB38"/>
<path d="M0.471507 71.6373V45.5233H13.8269C17.2591 45.5233 19.8207 46.1575 21.5119 47.4259C23.2031 48.6695 24.0487 50.3109 24.0487 52.3503C24.0487 53.6933 23.6881 54.8746 22.9668 55.8943C22.2705 56.8891 21.2757 57.685 19.9824 58.2819C18.714 58.8539 17.1969 59.1399 15.4311 59.1399L16.1772 57.3492C18.0176 57.3492 19.6218 57.6353 20.9896 58.2073C22.3575 58.7544 23.4145 59.5627 24.1606 60.6321C24.9316 61.6767 25.3171 62.9575 25.3171 64.4746C25.3171 66.7378 24.3969 68.5037 22.5565 69.772C20.7409 71.0156 18.0798 71.6373 14.5731 71.6373H0.471507ZM7.78342 66.3026H13.9762C15.2446 66.3026 16.2021 66.0912 16.8487 65.6684C17.5202 65.2207 17.856 64.5492 17.856 63.6539C17.856 62.7586 17.5202 62.0995 16.8487 61.6767C16.2021 61.229 15.2446 61.0052 13.9762 61.0052H7.26114V55.8943H12.857C14.1005 55.8943 15.0332 55.6829 15.6549 55.2601C16.2767 54.8373 16.5876 54.2031 16.5876 53.3575C16.5876 52.5119 16.2767 51.8902 15.6549 51.4922C15.0332 51.0695 14.1005 50.8581 12.857 50.8581H7.78342V66.3026ZM29.143 71.6373V45.5233H41.0808C43.4684 45.5233 45.5202 45.9088 47.2362 46.6798C48.9772 47.4508 50.3202 48.57 51.2653 50.0373C52.2103 51.4798 52.6829 53.1959 52.6829 55.1855C52.6829 57.1503 52.2103 58.8539 51.2653 60.2964C50.3202 61.714 48.9772 62.8083 47.2362 63.5793C45.5202 64.3254 43.4684 64.6985 41.0808 64.6985H33.2466L36.5295 61.6021V71.6373H29.143ZM45.2963 71.6373L38.8052 62.1244H46.6767L53.2052 71.6373H45.2963ZM36.5295 62.3855L33.2466 58.9907H40.6331C42.1751 58.9907 43.3191 58.6549 44.0653 57.9834C44.8362 57.3119 45.2217 56.3793 45.2217 55.1855C45.2217 53.9669 44.8362 53.0218 44.0653 52.3503C43.3191 51.6788 42.1751 51.343 40.6331 51.343H33.2466L36.5295 47.9482V62.3855ZM53.6243 71.6373L65.1517 45.5233H72.4263L83.9911 71.6373H76.3061L67.2782 49.142H70.188L61.16 71.6373H53.6243ZM59.9289 66.5638L61.8315 61.1171H74.5901L76.4927 66.5638H59.9289ZM84.7795 71.6373V67.0114L100.149 48.7689L101.045 51.3803H85.1152V45.5233H107.611V50.1492L92.2406 68.3917L91.3453 65.7803H108.17V71.6373H84.7795ZM111.405 71.6373V45.5233H118.791V71.6373H111.405ZM124.047 71.6373V45.5233H131.433V65.7803H143.893V71.6373H124.047Z" fill="#429867"/>
</svg>
